<svg width="20" height="20" viewBox="0 0 20 20" fill="none" xmlns="http://www.w3.org/2000/svg">
<g clip-path="url(#clip0)">
<path d="M1.25 1.36083C-0.321663 2.99333 3.29515e-06 4.7275 3.29515e-06 9.99583C3.29515e-06 14.3708 -0.76333 18.7567 3.23167 19.7892C4.47917 20.11 15.5325 20.11 16.7783 19.7875C18.4417 19.3583 19.795 18.0092 19.98 15.6567C20.0058 15.3283 20.0058 4.66916 19.9792 4.33416C19.7825 1.82833 18.24 0.384165 16.2075 0.0916647C15.7417 0.0241646 15.6483 0.00416464 13.2583 -2.02627e-06C4.78084 0.00416464 2.9225 -0.373335 1.25 1.36083V1.36083Z" fill="url(#paint0_linear)"/>
<path d="M9.99834 2.6158C6.97251 2.6158 4.09917 2.34663 3.00167 5.1633C2.54834 6.32663 2.61417 7.83747 2.61417 10.0008C2.61417 11.8991 2.55334 13.6833 3.00167 14.8375C4.09667 17.6558 6.99334 17.3858 9.99667 17.3858C12.8942 17.3858 15.8817 17.6875 16.9925 14.8375C17.4467 13.6625 17.38 12.1741 17.38 10.0008C17.38 7.1158 17.5392 5.2533 16.14 3.85497C14.7233 2.4383 12.8075 2.6158 9.99501 2.6158H9.99834ZM9.33667 3.94663C15.6483 3.93663 16.4517 3.23497 16.0083 12.9825C15.8508 16.43 13.2258 16.0516 9.99917 16.0516C4.11584 16.0516 3.94667 15.8833 3.94667 9.99747C3.94667 4.0433 4.41334 3.94997 9.33667 3.94497V3.94663ZM13.94 5.17247C13.4508 5.17247 13.0542 5.56913 13.0542 6.0583C13.0542 6.54747 13.4508 6.94413 13.94 6.94413C14.4292 6.94413 14.8258 6.54747 14.8258 6.0583C14.8258 5.56913 14.4292 5.17247 13.94 5.17247V5.17247ZM9.99834 6.2083C7.90417 6.2083 6.20667 7.90663 6.20667 10.0008C6.20667 12.095 7.90417 13.7925 9.99834 13.7925C12.0925 13.7925 13.7892 12.095 13.7892 10.0008C13.7892 7.90663 12.0925 6.2083 9.99834 6.2083V6.2083ZM9.99834 7.53913C13.2525 7.53913 13.2567 12.4625 9.99834 12.4625C6.74501 12.4625 6.74001 7.53913 9.99834 7.53913Z" fill="white"/>
</g>
<defs>
<linearGradient id="paint0_linear" x1="1.28835" y1="18.7226" x2="19.8762" y2="2.63498" gradientUnits="userSpaceOnUse">
<stop stop-color="#FFDD55"/>
<stop offset="0.5" stop-color="#FF543E"/>
<stop offset="1" stop-color="#C837AB"/>
</linearGradient>
<clipPath id="clip0">
<rect width="20" height="20" fill="white"/>
</clipPath>
</defs>
</svg>
